/* XPM */
static char * bottom_left_active_xpm[] = {
"16 16 3 1",
" 	c None",
"#	c #EDECEB s active_color_2",
"@	c #A9A5A2 s active_shadow_2",
"@               ",
"@               ",
"@               ",
"@               ",
"@               ",
"@               ",
"@               ",
"@               ",
"@               ",
"@               ",
"@               ",
"@               ",
"@               ",
"@               ",
"@               ",
"@@@@@@@@@@@@@@@@"};
