/* XPM */
static char * close_prelight_xpm[] = {
"20 24 6 1",
" 	c None",
".	c #A9A5A2",
"+	c #EBE6E4",
"@	c #EDECEB",
"#	c #1C1C1C",
"$	c #EB6530",
"....................",
"+@@@@@@@@@@@@@@@@@@@",
"++++++++++++++++++++",
"++++++++++++++++++++",
"++++++++++++++++++++",
"+++++##########+++++",
"++++#$$$$$$$$$$#++++",
"+++#$$$$$$$$$$$$#+++",
"+++#$$##$$$$##$$#+++",
"+++#$$###$$###$$#+++",
"+++#$$$######$$$#+++",
"+++#$$$$####$$$$#+++",
"+++#$$$$####$$$$#+++",
"+++#$$$######$$$#+++",
"+++#$$###$$###$$#+++",
"+++#$$##$$$$##$$#+++",
"+++#$$$$$$$$$$$$#+++",
"++++#$$$$$$$$$$#++++",
"+++++##########+++++",
"++++++++++++++++++++",
"++++++++++++++++++++",
"++++++++++++++++++++",
"++++++++++++++++++@+",
"++++++++++++++++++++"};
