/* XPM */
static char * close_active_xpm[] = {
"20 24 4 1",
" 	c None",
".	c #A9A5A2",
"+	c #EBE6E4",
"@	c #1C1C1C",
"....................",
"++++++++++++++++++++",
"++++++++++++++++++++",
"++++++++++++++++++++",
"++++++++++++++++++++",
"++++++++++++++++++++",
"++++++++++++++++++++",
"++++++++++++++++++++",
"++++++@@++++@@++++++",
"++++++@@@++@@@++++++",
"+++++++@@@@@@+++++++",
"++++++++@@@@++++++++",
"++++++++@@@@++++++++",
"+++++++@@@@@@+++++++",
"++++++@@@++@@@++++++",
"++++++@@++++@@++++++",
"++++++++++++++++++++",
"++++++++++++++++++++",
"++++++++++++++++++++",
"++++++++++++++++++++",
"++++++++++++++++++++",
"++++++++++++++++++++",
"++++++++++++++++++++",
"++++++++++++++++++++"};
