/* XPM */
static char * maximize_pressed_xpm[] = {
"20 24 5 1",
" 	c None",
".	c #A9A5A2",
"+	c #EBE6E4",
"@	c #1C1C1C",
"#	c #D4CFCD",
"....................",
"++++++++++++++++++++",
"++++++++++++++++++++",
"++++++++++++++++++++",
"++++++++++++++++++++",
"+++++@@@@@@@@@@+++++",
"++++@##########@++++",
"+++@############@+++",
"+++@##@@@@@@@@##@+++",
"+++@##@@@@@@@@##@+++",
"+++@##@######@##@+++",
"+++@##@######@##@+++",
"+++@##@######@##@+++",
"+++@##@######@##@+++",
"+++@##@######@##@+++",
"+++@##@@@@@@@@##@+++",
"+++@############@+++",
"++++@##########@++++",
"+++++@@@@@@@@@@+++++",
"++++++++++++++++++++",
"++++++++++++++++++++",
"++++++++++++++++++++",
"++++++++++++++++++++",
"++++++++++++++++++++"};
