/* XPM */
static char * maximize_toggled_prelight_xpm[] = {
"20 24 4 1",
" 	c None",
".	c #A9A5A2",
"+	c #EBE6E4",
"@	c #1C1C1C",
"....................",
"++++++++++++++++++++",
"++++++++++++++++++++",
"++++++++++++++++++++",
"++++++++++++++++++++",
"+++++@@@@@@@@@@+++++",
"++++@++++++++++@++++",
"+++@++++++++++++@+++",
"+++@++++@@@@@@++@+++",
"+++@++++@@@@@@++@+++",
"+++@++@@@@@@+@++@+++",
"+++@++@@@@@@+@++@+++",
"+++@++@++++@+@++@+++",
"+++@++@++++@@@++@+++",
"+++@++@++++@++++@+++",
"+++@++@@@@@@++++@+++",
"+++@++++++++++++@+++",
"++++@++++++++++@++++",
"+++++@@@@@@@@@@+++++",
"++++++++++++++++++++",
"++++++++++++++++++++",
"++++++++++++++++++++",
"++++++++++++++++++++",
"++++++++++++++++++++"};
