/* XPM */
static char * shade_active_xpm[] = {
"20 24 4 1",
" 	c None",
"#	c #EDECEB s active_color_2",
"@	c #A9A5A2 s active_shadow_2",
"$	c #1A1A1A s active_text_color",
"@@@@@@@@@@@@@@@@@@@@",
"####################",
"####################",
"####################",
"####################",
"####################",
"####################",
"####################",
"######$$$$$$$$######",
"######$$$$$$$$######",
"####################",
"#########$$#########",
"########$$$$########",
"#######$$$$$$#######",
"######$$$$$$$$######",
"######$$$$$$$$######",
"####################",
"####################",
"####################",
"####################",
"####################",
"####################",
"####################",
"####################"};



