/* XPM */
static char * shade_toggled_inactive_xpm[] = {
"20 24 4 1",
" 	c None",
"#	c #EDECEB s inactive_color_2",
"@	c #A9A5A2 s inactive_shadow_2",
"$	c #A9A5A2 s inactive_shadow_2",
"@@@@@@@@@@@@@@@@@@@@",
"####################",
"####################",
"####################",
"####################",
"####################",
"####################",
"####################",
"######$$$$$$$$######",
"######$$$$$$$$######",
"####################",
"######$$$$$$$$######",
"######$$$$$$$$######",
"#######$$$$$$#######",
"########$$$$########",
"#########$$#########",
"####################",
"####################",
"####################",
"####################",
"####################",
"####################",
"####################",
"####################"};



