/* XPM */
static char * title_inactive_xpm[] = {
"4 24 3 1",
" 	c None",
"#	c #EDECEB s inactive_color_2",
"@	c #A9A5A2 s inactive_shadow_2",
"@@@@",
"####",
"####",
"####",
"####",
"####",
"####",
"####",
"####",
"####",
"####",
"####",
"####",
"####",
"####",
"####",
"####",
"####",
"####",
"####",
"####",
"####",
"####",
"####"};
