/* XPM */
static char * top_left_inactive_xpm[] = {
"6 24 3 1",
" 	c None",
"#	c #EDECEB s active_color_2",
"@	c #A9A5A2 s active_shadow_2",
"     @",
"   @@#",
"  @###",
" @####",
" @####",
"@#####",
"@#####",
"@#####",
"@#####",
"@#####",
"@#####",
"@#####",
"@#####",
"@#####",
"@#####",
"@#####",
"@#####",
"@#####",
"@#####",
"@#####",
"@#####",
"@#####",
"@#####",
"@#####"};